<svg width="18" height="19" viewBox="0 0 18 19" fill="none" xmlns="http://www.w3.org/2000/svg">
<path fill-rule="evenodd" clip-rule="evenodd" d="M9 3.5C5.68629 3.5 3 6.18629 3 9.5C3 12.8137 5.68629 15.5 9 15.5C12.3137 15.5 15 12.8137 15 9.5C15 6.18629 12.3137 3.5 9 3.5ZM1.5 9.5C1.5 5.35786 4.85786 2 9 2C13.1421 2 16.5 5.35786 16.5 9.5C16.5 13.6421 13.1421 17 9 17C4.85786 17 1.5 13.6421 1.5 9.5ZM11.7803 7.46966C12.0732 7.76255 12.0732 8.23742 11.7803 8.53032L8.78033 11.5303C8.63968 11.671 8.44891 11.75 8.25 11.75C8.05109 11.75 7.86032 11.671 7.71967 11.5303L6.21967 10.0303C5.92678 9.73742 5.92678 9.26255 6.21967 8.96966C6.51256 8.67676 6.98744 8.67676 7.28033 8.96966L8.25 9.93933L10.7197 7.46966C11.0126 7.17676 11.4874 7.17676 11.7803 7.46966Z" fill="#9691A4"/>
</svg>
