<svg width="18" height="18" viewBox="0 0 18 18" fill="none" xmlns="http://www.w3.org/2000/svg">
    <path fill-rule="evenodd" clip-rule="evenodd" d="M8.41085 0.910826C8.73629 0.585389 9.26392 0.585389 9.58936 0.910826L17.0894 8.41083C17.3277 8.64916 17.399 9.00759 17.27 9.31898C17.141 9.63038 16.8372 9.83342 16.5001 9.83342H14.8334C14.3732 9.83342 14.0001 9.46032 14.0001 9.00008C14.0001 8.64274 14.225 8.33793 14.541 8.2195L9.00011 2.67859L3.4592 8.2195C3.77519 8.33793 4.00011 8.64274 4.00011 9.00008C4.00011 9.46032 3.62701 9.83342 3.16677 9.83342H1.50011C1.16305 9.83342 0.85919 9.63038 0.730206 9.31898C0.601222 9.00759 0.672518 8.64916 0.91085 8.41083L8.41085 0.910826Z" fill="currentColor"/>
    <path fill-rule="evenodd" clip-rule="evenodd" d="M3.16676 8.16675C3.627 8.16675 4.00011 8.53984 4.00011 9.00008L4.0001 14.8334C4.0001 15.0544 4.0879 15.2664 4.24418 15.4227C4.40046 15.579 4.61242 15.6667 4.83343 15.6667H13.1668C13.3878 15.6667 13.5997 15.579 13.756 15.4227C13.9123 15.2664 14.0001 15.0544 14.0001 14.8334L14.0001 9.00008C14.0001 8.53984 14.3732 8.16675 14.8334 8.16675C15.2937 8.16675 15.6668 8.53985 15.6668 9.00008V14.8334C15.6668 15.4965 15.4034 16.1323 14.9345 16.6012C14.4657 17.07 13.8298 17.3334 13.1668 17.3334H4.83343C4.17039 17.3334 3.5345 17.07 3.06566 16.6012C2.59682 16.1323 2.33343 15.4965 2.33343 14.8334V9.00008C2.33343 8.53985 2.70653 8.16675 3.16676 8.16675Z" fill="currentColor"/>
    <path fill-rule="evenodd" clip-rule="evenodd" d="M6.50011 9.00008C6.50011 8.53985 6.87321 8.16675 7.33345 8.16675H10.6668C11.127 8.16675 11.5001 8.53985 11.5001 9.00008V12.3334C11.5001 12.7937 11.127 13.1667 10.6668 13.1667H7.33345C6.87321 13.1667 6.50011 12.7937 6.50011 12.3334V9.00008ZM8.16678 9.83342V11.5001H9.83345V9.83342H8.16678Z" fill="currentColor"/>
</svg>
